inDegrees=no
num_controls=7
num_derivatives=13
num_iterations=87
num_multipliers=7
num_parameters=0
num_slacks=7
num_states=26
objective=0.431199
objective_accelerations=0.050258
objective_balance=0.006587
objective_effort=0.031034
objective_height=0.342167
objective_ligament=0.001153
solver_duration=1135.136537
status=Solve_Succeeded
success=true
DataType=double
version=3
OpenSimVersion=4.5
endheader
time	/jointset/ground_pelvis/pelvis_tilt/value	/jointset/ground_pelvis/pelvis_tx/value	/jointset/ground_pelvis/pelvis_ty/value	/jointset/hip_l/hip_flexion_l/value	/jointset/hip_l/hip_adduction_l/value	/jointset/hip_l/hip_rotation_l/value	/jointset/back/lumbar_extension/value	/jointset/patellofemoral_l/patellar_flexion_l/value	/jointset/knee_l/knee_flexion_l/value	/jointset/knee_l/knee_adduction_l/value	/jointset/knee_l/knee_rotation_l/value	/jointset/ankle_l/ankle_angle_l/value	/jointset/subtalar_l/subtalar_angle_l/value	/jointset/ground_pelvis/pelvis_tilt/speed	/jointset/ground_pelvis/pelvis_tx/speed	/jointset/ground_pelvis/pelvis_ty/speed	/jointset/hip_l/hip_flexion_l/speed	/jointset/hip_l/hip_adduction_l/speed	/jointset/hip_l/hip_rotation_l/speed	/jointset/back/lumbar_extension/speed	/jointset/patellofemoral_l/patellar_flexion_l/speed	/jointset/knee_l/knee_flexion_l/speed	/jointset/knee_l/knee_adduction_l/speed	/jointset/knee_l/knee_rotation_l/speed	/jointset/ankle_l/ankle_angle_l/speed	/jointset/subtalar_l/subtalar_angle_l/speed	/forceset/tau_hip_flexion_l	/forceset/tau_hip_adduction_l	/forceset/tau_hip_rotation_l	/forceset/tau_knee_flexion_l	/forceset/tau_ankle_angle_l	/forceset/tau_subtalar_angle_l	/forceset/tau_lumbar_extension	lambda_cid13_p0	lambda_cid13_p1	lambda_cid13_p2	lambda_cid13_p3	lambda_cid13_p4	lambda_cid13_p5	lambda_cid14_p0	/jointset/ground_pelvis/pelvis_tilt/accel	/jointset/ground_pelvis/pelvis_tx/accel	/jointset/ground_pelvis/pelvis_ty/accel	/jointset/hip_l/hip_flexion_l/accel	/jointset/hip_l/hip_adduction_l/accel	/jointset/hip_l/hip_rotation_l/accel	/jointset/back/lumbar_extension/accel	/jointset/patellofemoral_l/patellar_flexion_l/accel	/jointset/knee_l/knee_flexion_l/accel	/jointset/knee_l/knee_adduction_l/accel	/jointset/knee_l/knee_rotation_l/accel	/jointset/ankle_l/ankle_angle_l/accel	/jointset/subtalar_l/subtalar_angle_l/accel	gamma_cid13_p0	gamma_cid13_p1	gamma_cid13_p2	gamma_cid13_p3	gamma_cid13_p4	gamma_cid13_p5	gamma_cid14_p0
1	-0.4412038513724514	-0.04722738605051542	0.5923292538992806	1.766540329610502	-0.2717183856550925	0.227504227852109	-0.4363301662021562	1.435211307869639	1.435211307869746	-0.1744190155727173	0.1745305708781039	0.3282405531262952	0.05502263345937372	-0.01077550721838444	0.001517804935472902	-0.003474386701158936	0.016255495972209	0.0009111992210803344	0.003423678108075527	-2.989581730444222e-05	0.009265150921575037	0.009265150921576485	7.641933057141878e-05	1.105434288101104e-05	0.004380960261724036	0.002444178326513276	-0.332487544214134	0.01326304081394797	-0.01190318567205878	-0.3676386805518464	0.02835284254474641	0.01493992044711551	0.2970321658369711	-37.16831975041205	1.703273235186774	-2.597245894597437	21.2841355043724	-729.9609829977215	-51.90719640750179	-0.03926405121326369	1.099606405018477	-0.08609128679458716	1.815966853163135	-5.673163986970961	-0.6016055175511512	-2.100407928043821	-0.003810079729401023	-5.640885564034619	-5.640885564034494	-0.07586759893593863	0.01972113855252778	-1.377854034140849	-1.168989766513151	-2.119617944886465e-09	5.094779060625501e-09	-1.294549173681776e-08	5.270429699836631e-09	7.455859303203509e-10	-6.364932754471089e-10	2.280097860847179e-09
1.01	-0.4412570638950994	-0.04721644524841718	0.5923852212662831	1.766419756699635	-0.2717385068960929	0.2274314028371729	-0.4363302649808458	1.435022308526974	1.435022308526987	-0.1744187906201655	0.1745307341499887	0.3282159228079058	0.05498996731515828	0.0001264847470033699	0.000678789843459096	0.01466682504997356	-0.04037039024891112	-0.004932812348356183	-0.01798465995572455	4.518045651965757e-06	-0.04706001500922263	-0.04706001500921196	-3.148220623701027e-05	2.111344623372715e-05	-0.009294816309162275	-0.008968792619183801	-0.3320616387913491	0.01324234152621983	-0.01193681573570587	-0.3680006784582227	0.02930320409642675	0.01483489245971156	0.2967632142374177	-36.85109646005666	1.702576346118498	-2.607680857869122	20.89425928851607	-729.8316485631443	-51.89569356967374	-0.03926974297050433	1.084518372626918	-0.08153938049380795	1.813041220807125	-5.657347553866006	-0.5754102025417113	-2.160449722663218	0.006223814059046756	-5.627579819419101	-5.627579819417815	0.0217370895181318	-0.008435581102955666	-1.360607523411716	-1.126164302575889	-3.271608819426077e-09	1.316059774821149e-09	4.574702073798006e-08	1.037847523417492e-08	-9.187308646991183e-09	4.088780702624175e-08	-8.003046658605658e-09
1.02	-0.4412014519420288	-0.04721364114925687	0.5926225693277408	1.76573291560372	-0.2718169904979682	0.2271446138461769	-0.436330188281947	1.434270207982638	1.434270207982558	-0.1744196469788656	0.1745309812374377	0.3280549011128377	0.05484342875269028	0.01098938792551072	-0.0001095356521123497	0.03280175218986135	-0.09699814103736912	-0.01076127295386555	-0.03936911710412957	5.199698644450583e-06	-0.1033550894126909	-0.1033550894126726	-0.0001398429201877025	2.781745640219396e-05	-0.02289731507401632	-0.02033030532399673	-0.3316357333685651	0.01322164223849436	-0.01197044579935582	-0.3683626763645987	0.030253565648108	0.01472986447231169	0.2964942626378632	-36.54263483896428	1.704646548648946	-2.619965717836405	20.56229208280761	-729.8123402831015	-51.83106925428787	-0.03926915712778777	1.091788647642381	-0.07595336750611373	1.814709930914193	-5.673536900438534	-0.5984953247657193	-2.09563174496481	-0.01055652172220701	-5.634867258568738	-5.63486725856894	-0.07595943436438958	0.01905011991567592	-1.363198472934394	-1.158698118336318	-4.731318868453749e-09	-3.234632833348164e-09	1.034725634974222e-07	1.603618695964181e-08	-1.970254942937782e-08	7.921347662315088e-08	-1.790493643661553e-08
1.03	-0.441037350327717	-0.04721846445687895	0.5930411336161013	1.764479990426425	-0.2719536042239022	0.2266442136885435	-0.4363302709246781	1.432955494477091	1.432955494477155	-0.1744215777251591	0.1745312698644777	0.3277581450768935	0.05458365069860619	0.0218299737885613	-0.0008464712237379281	0.05089994132638359	-0.1535669737559619	-0.01655034228448131	-0.06069664898200402	-2.706374085793007e-05	-0.1595638306081612	-0.1595638306081495	-0.0002429494796713719	2.733823534594101e-05	-0.0364489459558617	-0.03160368548594705	-0.3310156077452424	0.0132273646128552	-0.01205901253450646	-0.3683207800939166	0.03108728473170709	0.01474191221208253	0.296077837560994	-36.2383213264307	1.638869742744109	-2.601184664456315	20.22294905886792	-729.3614963729767	-51.82802851947805	-0.03929519707174321	1.080050584352232	-0.07126108047569443	1.80569267313532	-5.645567950775147	-0.5674672060329777	-2.149195371687489	-0.0003615796032492693	-5.610304766180926	-5.610304766181821	0.02300517735780317	-0.01001961598787189	-1.350400087671631	-1.10843327165792	-6.194168909057831e-09	-7.793202720317122e-09	1.611882392189525e-07	2.169950752379368e-08	-3.02237325199795e-08	1.175065071312357e-07	-2.780293586012087e-08
1.04	-0.4407648714490323	-0.04723039660591423	0.5936403436494497	1.762661974623302	-0.2721477795369071	0.2259309619196341	-0.4363308362666944	1.43107940811636	1.431079408116568	-0.174424441248227	0.1745314691647357	0.3273260217937584	0.0542117837815959	0.03266484080024551	-0.001531303934756228	0.06893090118747094	-0.2100162662027736	-0.02227359036803606	-0.08193943935942793	-9.134016191890087e-05	-0.2156296604494215	-0.2156296604494173	-0.0003263982752282051	9.952099425622956e-06	-0.04997076451218795	-0.04274807790923846	-0.3303954821219225	0.01323308698721684	-0.01214757926965595	-0.3682788838232343	0.03192100381530681	0.0147539599518547	0.2956614124841215	-35.94276193514711	1.575806843748308	-2.58418578397928	19.94070663544572	-729.0204200363679	-51.77275348216023	-0.03931507204156437	1.090644877369105	-0.06553279538465584	1.801264075827217	-5.649628846082312	-0.5853310753535135	-2.078683444874704	-0.01695911803388068	-5.606284987726729	-5.606284987727109	-0.07202788157901896	0.0156687369428586	-1.357236007830564	-1.132900570604533	-8.797261805533595e-09	-1.391976710435768e-08	2.162460749633052e-07	2.887971688418615e-08	-4.095419546561421e-08	1.520542786248845e-07	-3.732047320348725e-08
1.05	-0.4403841201318137	-0.04724888146593222	0.5944194547883251	1.760280237291668	-0.2723988179924484	0.2250058118045304	-0.4363318939532199	1.42864347212803	1.428643472128052	-0.1744280931448117	0.1745314442538971	0.3267587866232746	0.05372919264335946	0.04347936859115608	-0.00215354299279105	0.08687296638211781	-0.2662938857687218	-0.02791841097029872	-0.1030700438779074	-9.412335775355945e-05	-0.2715244730840542	-0.2715244730840171	-0.0004010078665177757	-1.475643085604676e-05	-0.06347532386712255	-0.05374019312093451	-0.3297779858138243	0.01329172693260138	-0.01229256591392675	-0.3678846158365262	0.03266911767663867	0.01486154075585644	0.2952951369403317	-35.65322974268762	1.457924117698574	-2.542015461591956	19.60287693438857	-728.4566358956265	-51.75786772990287	-0.03935936881020458	1.075950515153698	-0.05874340512239484	1.787913263766719	-5.611230816520845	-0.5517445248610884	-2.127204168225482	0.01197314768986862	-5.576110320185482	-5.57611032018029	0.02524785231384451	-0.01157611008285317	-1.34691870322736	-1.077903151025722	-1.143598729125534e-08	-2.009533131643172e-08	2.71220853208371e-07	3.610732901946113e-08	-5.16911984067187e-08	1.864850107743321e-07	-4.682612110684929e-08
1.06	-0.4398954047796461	-0.04727322350535244	0.5953774336836437	1.75733684330344	-0.2727058420484519	0.2238699646016638	-0.4363321972580798	1.425649581829582	1.42564958182942	-0.1744324060672649	0.1745311651653452	0.326056535298461	0.05313757312209135	0.05425764779013299	-0.002702739815202629	0.1047044524760965	-0.3223475975214607	-0.03347071046049921	-0.1240788569120236	5.953616833809432e-05	-0.3272205224728452	-0.3272205224727722	-0.000458603449096052	-4.088344390472581e-05	-0.07697399537815527	-0.06455375451557374	-0.3291604895057284	0.01335036687798616	-0.01243755255820043	-0.3674903478498179	0.03341723153797094	0.01496912155985866	0.2949288613965394	-35.37255646675295	1.342791085445647	-2.501652940276965	19.32149316897214	-728.0031713656895	-51.69215172977286	-0.03939756600697562	1.083395158982367	-0.05092434826000301	1.779148255693572	-5.60484728344046	-0.5668268529410786	-2.054325148002039	0.01432942635154129	-5.566532338558422	-5.566532338558165	-0.06862507983675729	0.01538504038946194	-1.356058439050186	-1.09718980719317	-1.390211618232455e-08	-2.603007566513762e-08	3.22615680716107e-07	4.17110608685919e-08	-6.043618973410048e-08	2.19711449744719e-07	-5.607262349960537e-08
1.07	-0.4392993223767245	-0.04730261005702622	0.5965130277391344	1.7538345062792	-0.2730678947403791	0.222524840089781	-0.4363294809709945	1.422100054497682	1.42210005449759	-0.174437314243408	0.1745307065151281	0.3252194166754431	0.05243880503952132	0.06492768837391882	-0.003154288624456228	0.1223811884033622	-0.3780336134442224	-0.03892017092155892	-0.1449132072944351	0.0005819061645168006	-0.3826188227539757	-0.3826188227539944	-0.0005218775394750555	-4.269350270010247e-05	-0.09043935554895509	-0.07515915853957274	-0.3285203514565002	0.013436257987661	-0.0126346176998662	-0.3666977031314364	0.03425844839557479	0.01514674156795767	0.2946343939803419	-35.03101957018765	1.173511947250283	-2.437727094897904	18.85126913161114	-727.221209148184	-51.64857254090204	-0.03945377106558467	1.054139137055035	-0.03921833927639209	1.756946791230168	-5.537549167300879	-0.531112567459382	-2.093114782810736	0.08591852314910173	-5.516547508276995	-5.516547508290912	0.02496586063398527	-0.006826476006830173	-1.340211597998933	-1.036150336160573	-1.635906440346543e-08	-3.195201044664308e-08	3.738200853122829e-07	4.722841610675754e-08	-6.907522299692253e-08	2.528738305672835e-07	-6.530534155669093e-08
1.08	-0.4385974734421695	-0.04733590173519617	0.5978243912598952	1.749777895011611	-0.273483863421871	0.220972347114184	-0.4363185954365476	1.417998530435893	1.417998530435871	-0.1744428262735997	0.1745304572749186	0.3242479570923364	0.05163519598947985	0.07541095411683792	-0.003483765114441074	0.1398583455301101	-0.4332024461912583	-0.04425390837345718	-0.165552549654848	0.001693385636616667	-0.4376198684505721	-0.4376198684506837	-0.0005793742589553496	9.985587926521235e-07	-0.1038421873959171	-0.08552194800986403	-0.3278802134072742	0.01352214909733596	-0.01283168284153336	-0.3659050584130548	0.035099665253179	0.01532436157605695	0.2943399265641418	-34.69846612170396	1.007011061183364	-2.375621329226407	18.43647879550394	-726.5498527675529	-51.55635770643966	-0.03950399754246103	1.046040190809014	-0.02650988440624822	1.739232495590018	-5.501410648295284	-0.5436822511087899	-2.015323543602316	0.1321513215357136	-5.487081421651621	-5.487081421651585	-0.06746960565701057	0.02448546444709163	-1.343552774282613	-1.048666896451632	-2.068484477404193e-08	-4.205093894650695e-08	4.181261472154353e-07	5.492396154083681e-08	-7.904794786533325e-08	2.731880122788949e-07	-7.310098158988634e-08
